<svg xmlns="http://www.w3.org/2000/svg" fill="#262526" viewBox="279.07000732421875 188.92999267578125 233.9000244140625 233.9000244140625">
	<path d="M396.02,188.93c-64.59,0-116.95,52.36-116.95,116.95s52.36,116.95,116.95,116.95s116.95-52.36,116.95-116.95v0	C512.96,241.3,460.6,188.94,396.02,188.93z M362.03,365.73h-28.47v-85.7h28.48L362.03,365.73z M347.79,268.34h-0.25	c-8.99-0.05-16.23-7.38-16.18-16.37c0.05-8.99,7.38-16.23,16.37-16.18c8.99,0.05,16.23,7.38,16.18,16.37	c-0.05,8.91-7.27,16.13-16.18,16.18H347.79z M464.74,365.73h-28.48v-45.85c0-11.52-4.12-19.38-14.42-19.38	c-6.57,0.06-12.39,4.22-14.57,10.42c-0.73,2.24-1.04,4.6-0.93,6.95v47.86h-28.48c0,0,0.38-77.66,0-85.7h28.48v12.14	c5.25-9.13,15.15-14.58,25.67-14.15c18.74,0,32.8,12.25,32.8,38.57L464.74,365.73z"></path>
</svg>
